<svg id="Layer_1" data-name="Layer 1" xmlns="http://www.w3.org/2000/svg" viewBox="0 0 1080.81 492.3"><defs><style>.cls-1,.cls-4,.cls-5{fill:#fff;stroke:#262626;stroke-miterlimit:10;}.cls-1{stroke-width:4px;}.cls-2{fill:#262626;}.cls-3{font-size:144.02px;font-family:BerlinSansFB-Reg, Berlin Sans FB;}.cls-3,.cls-6{fill:#eddeff;}.cls-4{stroke-width:3.03px;}.cls-5{stroke-width:3px;}.cls-7{fill:#131313;}</style></defs><circle class="cls-1" cx="252.67" cy="246.15" r="244.15"/><rect class="cls-2" x="597.65" y="69.5" width="6.52" height="367.82" rx="0.69"/><text class="cls-3" transform="translate(663.59 222.39)">Plan N<tspan x="0" y="172.82">Platter</tspan></text><circle class="cls-4" cx="252.67" cy="246.15" r="185.08"/><path class="cls-5" d="M98,192.11a164.34,164.34,0,0,1,75.42-89.36"/><rect class="cls-2" x="344.39" y="89.33" width="181.79" height="337.61" rx="6.85"/><rect class="cls-6" x="350.92" y="102.75" width="167.34" height="310.77" rx="6.85"/><circle class="cls-2" cx="436.35" cy="389.45" r="13.13"/><ellipse class="cls-7" cx="493.4" cy="241.34" rx="4.65" ry="4.81"/><path id="Path_369" data-name="Path 369" class="cls-7" d="M521.92,226.46l.81.71L507,244.88l-14.8-2.78-15.66,17-.28,0-41.53-5.9-26,22.46-32.17-4-27.85,41.67-.91-.59,28.23-42.23,32.36,4,26-22.47,41.74,5.93,15.67-17,14.79,2.76Z"/><ellipse class="cls-7" cx="376.47" cy="271.08" rx="4.85" ry="4.81"/><ellipse class="cls-7" cx="434.59" cy="252.67" rx="4.85" ry="4.81"/><path class="cls-2" d="M21.23,484.29,98,312.41l-9.58-4.62L1.22,474.71a11.1,11.1,0,1,0,20,9.58Z"/><ellipse class="cls-2" cx="105.69" cy="283.86" rx="51.48" ry="36.9" transform="translate(-195.91 255.85) rotate(-64.27)"/></svg>